<?xml version="1.0" encoding="UTF-8" standalone="no"?>

<svg width="100%" height="100%" viewBox="0 0 200 200" version="1.1" xmlns="http://www.w3.org/2000/svg" xmlns:xlink="http://www.w3.org/1999/xlink" xml:space="preserve" xmlns:serif="http://www.serif.com/" style="fill-rule:evenodd;clip-rule:evenodd;stroke-linejoin:round;stroke-miterlimit:2;">
    <g id="Vector" transform="matrix(0.833333,0,0,0.833333,0,0)">
        <path d="M196.959,0L43.041,0C19.27,0 0,19.27 0,43.041L0,196.959C0,220.73 19.27,240 43.041,240L196.959,240C220.73,240 240,220.73 240,196.959L240,43.041C240,19.27 220.73,0 196.959,0Z" style="fill-rule:nonzero;"/>
    </g>
    <g id="Vector_2" transform="matrix(0.833333,0,0,0.833333,0,0)">
        <path d="M83.806,63.706C115.18,63.706 132.848,78.402 132.848,103.005C132.848,131.737 108.905,143.295 86.448,143.295L71.257,143.295L71.257,174.339L40.544,174.339L40.544,63.706L83.806,63.706ZM71.257,89.96L71.257,117.041L84.797,117.041C94.209,117.041 100.814,113.243 100.814,103.666C100.814,94.914 95.2,89.96 85.458,89.96L71.257,89.96Z" style="fill:white;fill-rule:nonzero;"/>
    </g>
    <g id="Vector_3" transform="matrix(0.833333,0,0,0.833333,0,0)">
        <path d="M139.09,168.89L139.256,143.295C148.007,149.075 160.226,152.708 168.648,152.708C174.427,152.708 177.069,151.056 177.069,148.084C177.069,144.782 173.436,143.46 166.501,141.314C153.126,137.351 138.43,131.902 138.43,114.399C138.43,96.565 153.126,86.658 174.427,86.658C184.5,86.658 192.756,88.144 200.021,91.281L199.856,115.72C194.076,112.252 182.683,109.115 175.252,109.115C169.804,109.115 167.657,110.766 167.657,113.243C167.657,116.215 170.299,117.041 178.225,119.518C193.582,124.141 206.461,129.095 206.461,147.093C206.461,164.266 192.426,175.825 170.464,175.825C158.905,175.825 148.007,173.843 139.09,168.89Z" style="fill:white;fill-rule:nonzero;"/>
    </g>
</svg>
